# xmcd
#
# Track frame offsets: 
#        150
#        13845
#        27407
#        40469
#        53976
#        67139
#        80018
#        92715
#        105938
#        117276
#        130200
#        144217
#        156456
#        169065
#        181161
#        193423
#        205299
#        215435
#        227572
#        240324
#
# Disc length: 3345 seconds
#
# Revision: 1
# Processed by: cddbd v1.5.2PL0 Copyright (c) Steve Scherf et al.
# Submitted via: ExactAudioCopyFreeDBPlugin 1.0
#
DISCID=1d0d0f14
DTITLE=Wynonie Harris - Wynonie Harris:  Rockin' the Blues [Proper Rec
DTITLE=ords]
DYEAR=2001
DGENRE=Rhythm and Blues
TTITLE0=Hurry, Hurry
TTITLE1=Who Threw the Whiskey in the Well
TTITLE2=Around the Clock, Part 1
TTITLE3=Around the Clock, Part 2
TTITLE4=Cock-a-Doodle-Doo
TTITLE5=Yonder Goes My Baby
TTITLE6=Wynonie's Blues
TTITLE7=Here Comes the Blues
TTITLE8=Straighten Him Out
TTITLE9=Young Man's Blues
TTITLE10=Baby Look at You
TTITLE11=She's Gone with the Wind
TTITLE12=Somebody Done Changed the Lock on My Door
TTITLE13=That's the Stuff You Gotta Watch
TTITLE14=I Gotta Lyin' Woman
TTITLE15=Rebecca's Blues
TTITLE16=Everybody's Boogie
TTITLE17=Time to Change Your Town
TTITLE18=I Gotta Lyin' Woman (alternate take)
TTITLE19=Everybody's Boogie (alternate take)
EXTD=
EXTT0=
EXTT1=
EXTT2=
EXTT3=
EXTT4=
EXTT5=
EXTT6=
EXTT7=
EXTT8=
EXTT9=
EXTT10=
EXTT11=
EXTT12=
EXTT13=
EXTT14=
EXTT15=
EXTT16=
EXTT17=
EXTT18=
EXTT19=
PLAYORDER=
